<svg width="1160" height="1073" viewBox="0 0 1160 1073" fill="none" xmlns="http://www.w3.org/2000/svg">
<path d="M1159 802C1159 810 1159.02 857.73 1159 869C1125.59 874.07 1092.23 880.77 1058.94 886.65L868.59 920.3L310.86 1018.89L109.51 1054.47C74.22 1060.71 74.5 1060.5 3.09602 1072.94C2.96202 1051.14 3.22302 1029.13 3 1006C36.455 1000.89 69.615 995.17 102.949 989.28L296.121 955.09L865.25 854.48C962.72 837.27 1061.31 817.78 1159 802Z" fill="#24AAE0"/>
<path d="M724.84 462.778C726.54 462.397 726.77 462.359 728.54 462.886C729.21 465.208 728.99 467.198 728.7 469.562C727.7 477.793 725.52 486.178 724.15 494.397L713.3 560.279L672.08 808.25C651.174 811.77 630.304 815.49 609.472 819.41C607.101 796.67 602.13 773.6 598.31 751.01L578.49 632.088L545.04 830.74C525.007 833.47 504.974 837.68 485.033 841.09L451.483 647.446C443.588 603.26 435.977 559.024 428.65 514.74C448.984 511.947 469.322 507.724 489.543 504.135C494.048 524.188 496.252 545.332 499.375 565.677L518.472 690.78C521.11 666.108 525.999 641.468 530.06 616.983L550.474 493.376C571.336 489.727 592.282 486.311 613.068 482.262C615.534 502.902 619.746 523.59 623.191 544.102C630.259 585.412 637.102 626.76 643.721 668.144C651.887 602.464 662.92 536.937 672.69 471.463C690.07 469.825 707.57 465.528 724.84 462.778Z" fill="#24AAE0"/>
<path d="M273.784 153.97C288.148 152.091 306.342 155.126 318.067 163.902C330.166 172.959 335.31 188.365 337.15 202.825C339.403 220.533 339.143 238.538 339.164 256.352L339.168 317.101C339.153 350.632 341.71 399.164 336.258 430.944C334.183 443.037 329.867 454.353 322.218 464.014C303.546 487.599 272.707 494.515 244.306 497.877C227.032 498.652 208.151 498.921 194.297 486.766C181.623 475.645 178.056 458.494 176.87 442.433C174.159 405.713 175.874 367.898 175.879 331.059C175.883 298.866 173.336 250.151 179.048 219.902C181.409 207.401 185.939 195.749 194.377 186.08C213.708 163.927 245.65 156.095 273.784 153.97ZM252.285 446.71C260.839 445.218 268.725 443.835 273.973 436.12C278.148 429.98 279.015 419.036 279.64 411.773C282.107 383.076 280.386 351.001 280.386 321.976L280.361 268.575C280.344 251.288 281.295 233.363 277.543 216.393C276.661 212.402 275.578 209.024 271.917 206.762C269.223 205.098 265.15 205.513 262.163 205.777C254.311 207.198 246.217 208.484 241.301 215.506C236.873 221.832 235.99 233.275 235.366 240.795C232.829 271.357 234.566 305.165 234.569 336.039C234.571 362.698 232.203 410.657 237.081 434.902C237.893 438.941 238.881 443.553 242.83 445.713C245.675 447.27 249.183 446.97 252.285 446.71Z" fill="#293B69"/>
<path d="M923.66 38.871C927.35 38.184 931.64 38.255 935.4 38.194C949.83 37.96 964.75 39.742 975.49 50.514C994.02 69.093 989.43 105.689 989.5 129.889L933.05 139.835C933.11 127.261 934.42 112.583 931.37 100.381C930.42 96.589 929.07 93.093 925.5 91.086C920.75 88.413 913.26 90.258 908.46 91.77C900.93 94.143 892.77 99.035 889.22 106.429C886.29 112.52 885.99 122.729 885.63 129.422C884.06 158.499 885.3 188.289 885.3 217.436C885.3 246.469 884.02 276.189 885.78 305.14C886.16 311.391 886.94 317.712 888.93 323.679C889.99 326.866 891.24 329.004 894.47 330.332C904.76 334.572 923.15 328.185 933.02 324.611L933.04 225.929C924.61 227.616 916.03 228.813 907.54 230.216L907.58 178.472C925.77 175.928 943.94 172.336 962.05 169.21L991.82 164.052C991.06 228.443 991.39 293.007 991.89 357.404C963.94 368.162 932.59 378.402 902.77 382.128C884.32 384.432 862.26 384.317 847.01 371.972C834.82 362.102 829.86 347.914 828.2 332.833C826.31 315.765 826.62 298.393 826.61 281.246V217.552L826.62 158.51C826.67 141.641 826.25 123.903 829.16 107.255C831.3 94.989 835.68 84.07 843.58 74.379C862.76 50.855 894.67 41.953 923.66 38.871Z" fill="#293B69"/>
<path d="M936.13 423.914C936.42 423.882 936.71 423.842 937 423.818C950.11 422.734 965.19 424.935 975.31 433.897C997.06 453.151 990.97 490.769 992.36 516.596C973.11 519.845 953.87 523.193 934.65 526.64C934.74 516.675 937.11 485.762 931.22 479.032C929.25 476.775 926.49 475.938 923.58 475.955C916.62 475.995 908.85 480.055 904.23 485.147C898.34 491.634 897.78 500.307 898.27 508.688C898.61 514.622 898.83 521.184 900.93 526.785C905.63 539.27 915.27 547.727 924.68 556.668C935.59 567.138 946.44 577.68 957.21 588.293C981.92 612.561 994.36 627.42 995.72 663.11C996.74 689.9 993.35 719.61 974.2 740.03C953.07 762.56 918.45 768.84 888.9 769.63C876.45 768.51 864.86 766.39 855.45 757.27C834.77 737.2 839.37 696.92 839.4 670.594C858.32 666.274 877.93 663.838 897.02 660.201C896.94 671.394 894.52 708.1 902.02 715.65C903.74 717.39 906.65 717.8 908.98 717.79C916.3 717.75 926.58 714.13 931.57 708.57C936.85 702.68 937.74 692.17 937.98 684.55C938.28 675.352 938.34 665.381 934.66 656.777C930.63 647.352 921.98 639.74 914.64 632.864C882.79 603.018 845.36 577.875 840.95 530.81C838.6 505.696 842.61 476.906 859.26 457.02C878.45 434.109 907.48 426.436 936.13 423.914Z" fill="#24AAE0"/>
<path d="M89.076 185.965C92.213 185.529 95.507 185.524 98.673 185.464C113.143 185.194 128.726 188.159 139.332 198.748C158.74 218.125 154.37 254.021 154.31 279.157L96.558 289.146C96.697 277.367 98.935 254.551 94.379 244.157C93.07 241.17 90.937 238.765 87.744 237.78C82.496 236.163 75.326 238.254 70.775 240.987C66.088 243.803 63.211 248.489 61.927 253.729C58.268 268.658 59.669 285.784 59.656 301.117L59.632 359.086L59.649 420.56C59.656 433.236 59.217 446.144 60.239 458.782C60.641 463.752 61.267 471.277 64.33 475.283C66.065 477.553 68.859 478.146 71.547 478.218C78.073 478.393 84.945 476.611 89.536 471.736C100.57 460.016 96.714 429.995 96.525 414.428C113.332 412.47 130.254 408.537 146.982 405.784L154.29 404.275C154.388 433.308 159.103 470.148 140.511 494.639C124.796 515.341 99.481 524.819 74.462 528.29C56.733 530.75 35.474 530.449 20.712 518.9C8.88398 509.647 4.46797 494.832 2.73097 480.545C0.498965 462.186 0.955987 443.606 0.940987 425.148L0.919991 356.14L0.940987 299.824C0.949987 284.045 0.275991 267.449 2.97599 251.855C4.93599 240.531 9.41597 229.986 16.611 220.988C33.993 199.249 62.164 188.871 89.076 185.965Z" fill="#293B69"/>
<path d="M1151.41 387.526L1154.32 387.027L1155.23 387.851C1156.52 404.576 1155.53 421.92 1155.44 438.722L1078.33 452.115C1078.9 480.392 1078.41 508.769 1078.4 537.056C1102.57 531.295 1128.11 528.363 1152.57 523.72L1152.6 576.195C1127.96 578.644 1102.8 584.543 1078.38 588.892L1078.45 684.41C1086.97 682.14 1096.07 681 1104.76 679.47C1122.8 676.29 1140.91 673.377 1158.85 669.705L1158.96 696.76L1158.97 722.5C1112.3 729.59 1066.03 739.5 1019.37 746.74L1019.3 410.627C1063.42 403.476 1107.35 395.041 1151.41 387.526Z" fill="#24AAE0"/>
<path d="M1150.58 0.735992C1152.11 0.379992 1153.16 0.354007 1154.71 0.557007C1157.08 7.58301 1155.38 41.953 1155.34 51.66L1078.24 65.036L1078.3 150.208C1102.88 145.009 1127.9 141.782 1152.53 136.788L1152.55 188.745C1127.74 192.784 1103.06 197.635 1078.25 201.641L1078.29 297.446C1104.86 291.51 1132.19 288.184 1158.92 282.85C1159.09 292.397 1159 301.965 1159.03 311.515L1159.13 335.199C1112.72 344.112 1065.93 351.268 1019.47 359.95L1019.4 23.743C1063.21 16.701 1106.85 8.29899 1150.58 0.735992Z" fill="#293B69"/>
<path d="M801.62 62.169L802.55 62.368C804.16 69.401 802.87 104.045 802.89 113.766C777.23 118.309 751.56 123.139 725.8 127.152L725.84 212.257C750.41 207.455 775.22 203.854 799.79 199.016L799.82 250.998C775.1 254.793 750.44 259.578 725.8 263.89L725.82 359.522C752.48 353.92 779.7 349.893 806.54 345.167L806.53 376.407L806.55 397.329C760.46 406.949 713.44 413.58 667.1 422.061V85.812C682.45 83.664 697.79 80.524 713.07 77.837L801.62 62.169Z" fill="#293B69"/>
<path d="M571.73 102.802C573.3 102.385 573.615 102.333 575.287 102.683C576.792 110.483 575.706 120.559 575.69 128.587L575.589 183.35L575.626 386.559C600.984 381.239 626.759 377.592 652.222 372.718C652.618 390.02 652.294 407.424 652.31 424.736C633.667 427.395 615.016 431.205 596.463 434.479C569.885 438.809 543.432 443.943 516.86 448.336C517.654 410.342 516.921 372.155 516.924 334.14L516.887 112.502C535.128 109.067 553.448 106.006 571.73 102.802Z" fill="#293B69"/>
<path d="M424.351 128.832L425.482 129.328C426.253 140.143 425.629 151.311 425.616 162.173L425.628 221.62L425.685 412.814L502.064 399.37L502.147 451.008C483.947 454.662 465.519 457.547 447.224 460.713C420.629 466.176 393.607 469.778 366.958 475.055L366.94 138.713C386.12 135.995 405.239 132.054 424.351 128.832Z" fill="#293B69"/>
<path d="M812.48 447.23C813.81 458.786 812.8 471.427 812.78 483.119L812.69 551.985L812.79 783.32C793.39 787.15 773.66 790.67 754.09 793.48C752.19 786.15 753.82 724.99 753.82 713.06L753.8 457.76C772.82 453.055 793.14 450.631 812.48 447.23Z" fill="#24AAE0"/>
</svg>
