<?xml version="1.0" encoding="UTF-8" standalone="no"?>
<svg height="207.49995" viewBox="0 0 474.99997 207.49995" width="474.99997" xmlns="http://www.w3.org/2000/svg">
   <g fill="#02d1d1" transform="matrix(.05076565 0 0 .05076565 -.16651586 -.5076565)">
      <path d="m7165 4091c-82.9546-15.249-159.1658-74.433-201-154-9.1785-17.4572-19.3149-61.9751-22-98-9.315-124.9769 45.1992-225.5996 150-278 109.2007-54.6004 258.8171-39.7873 346 35 123.8175 106.2131 126.0894 313.0967 5 425-72.5381 69.5335-183.7493 85.5814-278 70zm235-284c .5596-95.9984-66.9962-161.4975-165-161-98.9987.5025-162.7871 56.8239-163 159-.2456 117.8521 73.1855 176.3207 164.3717 173 101.7025-3.7037 163.1641-91.3584 163.6283-171zm264 283c-16-5-40-20-52-33l-22-23 36-43 37-42 23 22c24.4185 23.3568 76.6023 23.0577 76.8412-1.6101-.016-145.1166-1.865-285.5638-1.8611-429.5669 44.8692-.3767 72.0088-.6112 129.0199-.823v221c0 202 2.8809 225.8303-15.1191 261.8303-38.5579 70.5036-141.8268 86.6326-210.8809 68.1697zm1036-1c-172-34-269.4002-241.1995-188-404 26.6008-53.2015 71.1102-108.3927 123-128 95.9945-36.2728 180.4217-34.5474 271.7257 1.4513.023 48.3191.6121 93.2068 1.2743 141.5487-48.364-34.0714-106.4167-51.1391-148-48-70 5-108.0398 26.2743-138.0398 95.2743-35 78 9.9425 166.823 84.9425 207.823 46 25 200.4193-8.2743 200.4193-8.2743-.033 37.6546-.5963 57.3442-.5963 127.3142l-46.7257 12.8628c-53 13-98 14-160 2zm-2790-274v-275h128c113 0 133.0322 2.9374 172 23 62.0323 31.9374 83 65 88 140 4 78-24.927 141.1438-78 168-29.9275 15.1441-177.531 29-177.531 29-.119 66.7076-2.469 101.9855-2.469 190h-130zm234-46c56-44 19.5487-122.177-60.4513-131.177l-43.5487-.823v153h39c24 0 48-8 65-21zm276 45v-276l139 1.5595c107.137 1.7798 124.6966-8.4225 168 26.4405 49 36 73 82 73 136 0 65-23 112-69 140-20 12-38 23-39 24-2 1 33 51 78 111l82 112.8809c-51.5737-.6419-98.2356-.4228-148.6101.085 0 0-42.3899-53.9658-80.3899-109.9658l-74.0398-100c .099 69.1728-.5474 139.9564.04 210h-129zm256.1011-102.5595c0-46-33.1011-71.4405-88.1011-71.4405h-38v153l42.2202.1011c48.951.1173 83.425-38.9876 83.8809-81.6606zm1373.8989 103.5595v-275h310v110h-180v99c57.114.1447 116.2095.7853 174.3899.814.4679 34.9587 0 76.935 0 111.8973-58.3325-.4154-116.0562-.7171-174.3899-.7113v119h180v110h-310zm1056.5487-169.7871c-38.6785.091-78.9217.7858-116.7257-.2129.1152-34.9976-.9989-69.9989-.823-105h370.7058c-.2106 36.7207-.4152 69.0648-.3916 105-38.647-.2613-82.6466-.082-120.4821.2129.911 148.0581 1.1679 296.7272 1.1679 444.7871h-130c-.3631-148.0829-2.0347-296.7311-3.4513-444.7871zm-1901.5487-322.2129l-510-3 62-29c152-72 316-213 405-347 78-118 147-274 173-391l7-33h216c119 0 245-5 279-10 191-31 255-121 270-377l6-113h-393v-820h390v-690h860v690h390v820h-390v158c0 372-89 614-301 818-150 143-334 241-564 298-81 20-239 37-322 34-37-2-297-4-578-5z"/>
      <path d="m5910 2898v-415l93-6c158-11 238-46 288-125 42-66 57-127 69-282 13-166 36-304 61-379 55-159 231-325 432-406 143-58 252-76 515-82l232-6v820l-62 7c-190 20-241 70-273 267-8 52-20 126-26 164-45 279-200 524-424 670-184 121-367 166-732 181l-173 7zm-4134 395c-3-4-6-631-6-1395v-1388h870v421c0 231 3 419 8 417 233-116 294-133 472-126 101 4 140 10 205 32 241 82 397 272 449 546 14 70 16 189 16 791v709h-859l-3-597c-3-533-5-602-20-635-20-45-62-68-122-68-60 0-92 16-119 59-22 36-22 37-27 636l-5 600-426 2c-235 1-429-1-433-4zm2161 0c-4-3-7-408-7-900v-893l54 44c159 129 383 161 608 86 54-18 122-47 150-66l53-33 3 876c1 482-1 879-4 882-8 8-849 13-857 4z"/>
      <path d="m4926 1985c-1.4629-396.1263 480.3102-693.3255 751-751 94-19 339-22 443-7l55 8 3 408c1 224 1 407-1 407-1 0-28-9-60-20-174-61-299 18-327 207-5 37-10 292-10 566v497h-430l-422.3717-1c-.5952-433.8832-.055-888.0415-1.6283-1314zm-3607 1279c-372-67-698-298-829-588-67-147-100-316-100-508v-118h-386.5486726c.9384244-268.3381-1.3116646-540.9827.6858407-809.3142 130.3562919-1.2564 257.2374419.654 385.8628319-.6858v-730h860v730h390v810h-392l7 83c14 155 60 253 139 294 79.677 45.7761 166.656 44.3645 250.7023 52.9405l5.2977 401.0595v399l-127-1c-71 0-162-7-204-15zm2916-1798c-119-38-217-118-274-225-17-32-31-63-31-68 0-5 24 13 53 39 79 74 176 118 274 125 177 12 361-89 407-224 23-66 21-180-5-256-24-73-50-120-125-224-111-155-149-258-142-390 2-45 2-83-2-83-4 0-48 28-99 61-90 59-212 170-280 254-29 35-31 36-18 10 50-101 190-245 329-337 70-47 237-138 252-138 3 0-11 23-29 50-39 58-50 102-42 170 10 82 51 145 182 280 124 129 165 180 205 259 70 139 74 289 9 426-55 118-191 221-349 264-86 24-250 28-315 7z"/>
   </g>
</svg>
